<svg width="21" height="21" viewBox="0 0 21 21" fill="none" xmlns="http://www.w3.org/2000/svg">
<path d="M9.37654 1.18966C9.67639 0.269381 10.9783 0.269382 11.2782 1.18966L13.0292 6.56406C13.1634 6.97568 13.5471 7.25426 13.98 7.25426H19.6408C20.6102 7.25426 21.0125 8.49529 20.2275 9.06405L15.6526 12.3787C15.3012 12.6333 15.1541 13.0856 15.2886 13.4983L17.0371 18.8649C17.3372 19.7858 16.2839 20.5527 15.4996 19.9845L10.9141 16.6621C10.564 16.4085 10.0907 16.4085 9.74063 16.6621L5.15508 19.9845C4.37082 20.5527 3.31753 19.7858 3.61756 18.8649L5.36613 13.4983C5.50058 13.0856 5.3535 12.6333 5.00204 12.3787L0.427169 9.06405C-0.357838 8.49529 0.044493 7.25426 1.01389 7.25426H6.67464C7.10757 7.25426 7.49133 6.97568 7.62545 6.56406L9.37654 1.18966Z" fill="black"/>
</svg>
