<svg width="21" height="21" viewBox="0 0 21 21" fill="none" xmlns="http://www.w3.org/2000/svg">
<path d="M9.47371 1.18966C9.77356 0.269381 11.0755 0.269382 11.3753 1.18966L13.1264 6.56406C13.2605 6.97568 13.6443 7.25426 14.0772 7.25426H19.738C20.7074 7.25426 21.1097 8.49529 20.3247 9.06405L15.7498 12.3787C15.3984 12.6333 15.2513 13.0856 15.3857 13.4983L17.1343 18.8649C17.4343 19.7858 16.381 20.5527 15.5968 19.9845L11.0112 16.6621C10.6612 16.4085 10.1878 16.4085 9.8378 16.6621L5.25225 19.9845C4.46799 20.5527 3.4147 19.7858 3.71472 18.8649L5.4633 13.4983C5.59775 13.0856 5.45067 12.6333 5.09921 12.3787L0.524337 9.06405C-0.26067 8.49529 0.141661 7.25426 1.11106 7.25426H6.77181C7.20474 7.25426 7.5885 6.97568 7.72262 6.56406L9.47371 1.18966Z" fill="#E5E5E5"/>
</svg>
